<?xml version="1.0" standalone="no"?>
<!DOCTYPE svg PUBLIC "-//W3C//DTD SVG 20010904//EN"
 "http://www.w3.org/TR/2001/REC-SVG-20010904/DTD/svg10.dtd">
<svg version="1.0" xmlns="http://www.w3.org/2000/svg"
 width="244.000000pt" height="96.000000pt" viewBox="0 0 244.000000 96.000000"
 preserveAspectRatio="xMidYMid meet">

<g transform="translate(0.000000,96.000000) scale(0.100000,-0.100000)"
fill="#000000" stroke="none">
<path d="M0 480 l0 -480 1220 0 1220 0 0 480 0 480 -1220 0 -1220 0 0 -480z
m2410 0 l0 -450 -1190 0 -1190 0 0 450 0 450 1190 0 1190 0 0 -450z"/>
<path d="M229 811 c-30 -30 -33 -48 -23 -112 10 -62 84 -88 144 -52 64 37 42
193 -26 193 -10 0 -3 -79 8 -82 14 -5 4 -38 -12 -38 -6 0 -10 25 -10 60 0 58
-1 60 -26 60 -15 0 -38 -12 -55 -29z m41 -72 c0 -11 -4 -17 -10 -14 -5 3 -10
13 -10 21 0 8 5 14 10 14 6 0 10 -9 10 -21z"/>
<path d="M1520 831 c-106 -34 -168 -118 -178 -237 -13 -168 79 -289 231 -301
34 -3 80 0 103 6 216 58 251 410 51 513 -45 23 -162 34 -207 19z m110 -121
c25 -14 40 -70 39 -150 0 -86 -17 -132 -51 -144 -51 -18 -88 42 -88 141 0 123
41 185 100 153z"/>
<path d="M2028 826 c-58 -21 -86 -43 -108 -86 -40 -78 -16 -160 58 -203 18
-11 70 -29 114 -41 86 -22 112 -43 89 -70 -26 -31 -108 -16 -141 26 -15 18
-20 19 -90 5 -85 -15 -89 -24 -44 -85 45 -58 95 -77 209 -77 84 0 107 4 141
22 109 58 137 177 61 259 -27 29 -47 38 -131 59 -110 27 -126 36 -110 63 18
28 67 27 102 -3 l31 -26 71 21 70 21 -15 29 c-43 83 -195 126 -307 86z"/>
<path d="M420 566 l0 -266 85 0 85 0 0 101 c0 90 2 100 17 97 12 -2 32 -37 58
-101 l40 -97 97 0 c113 0 107 -18 41 135 l-39 90 30 20 c66 43 85 151 39 213
-45 60 -71 67 -270 70 l-183 4 0 -266z m284 138 c23 -22 20 -60 -6 -78 -12 -9
-42 -16 -65 -16 l-43 0 0 55 0 55 49 0 c32 0 55 -6 65 -16z"/>
<path d="M930 765 l0 -65 55 0 55 0 0 -200 0 -200 85 0 85 0 0 200 0 200 55 0
55 0 0 65 0 65 -195 0 -195 0 0 -65z"/>
<path d="M230 583 c-30 -24 -32 -30 -27 -72 14 -122 170 -123 184 -1 4 38 1
49 -21 73 -14 15 -30 27 -36 27 -14 0 -13 -63 1 -77 13 -13 5 -43 -11 -43 -6
0 -10 25 -10 60 0 57 -1 60 -24 60 -14 0 -39 -12 -56 -27z m40 -70 c0 -20 -3
-24 -11 -16 -7 7 -9 19 -6 27 10 24 17 19 17 -11z"/>
<path d="M202 355 l-1 -55 94 0 95 0 0 35 c0 35 0 35 -44 35 -54 0 -76 8 -76
26 0 9 -11 14 -33 14 l-33 0 -2 -55z"/>
<path d="M87 333 c-4 -3 -7 -41 -7 -83 0 -91 13 -110 78 -110 23 0 42 -4 42
-10 0 -5 11 -10 25 -10 14 0 25 5 25 10 0 7 358 10 1055 10 l1055 0 0 40 0 40
-1055 0 c-1048 0 -1055 0 -1055 20 0 15 -7 20 -25 20 -18 0 -25 -5 -25 -20 0
-16 -7 -20 -30 -20 -29 0 -30 1 -30 48 0 47 -12 72 -35 72 -7 0 -15 -3 -18 -7z"/>
</g>
</svg>
